# xmcd
#
# Track frame offsets: 
#        150
#        22548
#        32387
#        45203
#        50639
#        61553
#        76352
#        93665
#        109106
#        119135
#        128429
#        139062
#        149393
#        166111
#        181620
#        191336
#
# Disc length: 3661 seconds
#
# Revision: 2
# Processed by: cddbd v1.5.2PL0 Copyright (c) Steve Scherf et al.
# Submitted via: ExactAudioCopyFreeDBPlugin 1.0
#
DISCID=be0e4b10
DTITLE=Jóhann Jóhannsson - Dís
DYEAR=2006
DGENRE=Electronica
TTITLE0=Bankok Norðursins
TTITLE1=10 Rokkstig
TTITLE2=Sumavéi
TTITLE3=Gúmmískór
TTITLE4=Já, Hemmi Minn
TTITLE5=Efripídes Og Neðripídel
TTITLE6=Jarðaför
TTITLE7=Flynnkudagur
TTITLE8=Ruslpóstur
TTITLE9=Ljósrit
TTITLE10=Flugeldar
TTITLE11=Ónefnt
TTITLE12=Hótel Borg
TTITLE13=Dís
TTITLE14=Flugeldar II
TTITLE15=Dís - Long Version
EXTD=YEAR: 2006
EXTT0=
EXTT1=
EXTT2=
EXTT3=
EXTT4=
EXTT5=
EXTT6=
EXTT7=
EXTT8=
EXTT9=
EXTT10=
EXTT11=
EXTT12=
EXTT13=
EXTT14=
EXTT15=
PLAYORDER=
